<svg width="26" height="26" viewBox="0 0 26 26" fill="none" xmlns="http://www.w3.org/2000/svg">
<rect width="26" height="26" fill="#8E9954"/>
<path d="M5.35596 18.1363H7.87688V7.8H5.35596V18.1363ZM9.86884 18.1363H12.3707V13.8017C12.3707 11.9002 10.8855 10.7235 8.62823 11.8803C8.62823 11.8803 9.86884 11.7623 9.86884 13.0172V18.1363Z" fill="white"/>
<path d="M19.4034 13.6294C20.0944 13.6294 20.644 13.1008 20.644 12.4328C20.644 11.7862 20.0944 11.256 19.4034 11.256C18.7331 11.256 18.1628 11.7862 18.1628 12.4328C18.1628 13.1008 18.7331 13.6294 19.4034 13.6294ZM16.9635 18.2L18.2645 15.6504L16.0088 11.4338H13.4863L16.9635 18.2Z" fill="white"/>
</svg>
